<svg width="124" height="120" viewBox="0 0 124 120" fill="none" xmlns="http://www.w3.org/2000/svg">
<path d="M100.672 28.0477H93.912C90.4095 28.0477 87.3035 25.7969 86.2211 22.4691L84.1329 16.0547C80.6491 5.351 71.3227 0 61.9963 0C52.67 0 43.3436 5.351 39.8598 16.0547L37.7716 22.4691C36.6892 25.7952 33.5832 28.0477 30.0807 28.0477H23.3208C0.772395 28.0477 -8.60334 56.8497 9.63756 70.0777L15.1058 74.0426C17.9411 76.098 19.1256 79.7418 18.0432 83.0679L15.955 89.4823C10.6468 105.788 23.6254 120 38.1732 120C42.7241 120 47.4281 118.609 51.7748 115.458L57.2429 111.493C58.6589 110.465 60.3285 109.95 61.998 109.95C63.6676 109.95 65.3338 110.465 66.7531 111.493L72.2213 115.458C76.5697 118.61 81.272 120 85.8229 120C100.371 120 113.349 105.785 108.041 89.4823L105.953 83.0679C104.87 79.7418 106.057 76.098 108.89 74.0426L114.359 70.0777C132.603 56.848 123.225 28.0477 100.675 28.0477H100.672ZM100.881 84.7106L102.969 91.125C104.802 96.7563 103.96 102.401 100.597 107.023C98.9138 109.337 96.6673 111.267 94.0992 112.609C91.5055 113.963 88.6446 114.68 85.8229 114.68C82.1042 114.68 78.5813 113.492 75.3562 111.153L69.888 107.188C67.5803 105.515 64.8521 104.63 61.9997 104.63C59.1474 104.63 56.4192 105.515 54.1115 107.188L48.6433 111.153C45.4165 113.494 41.8936 114.68 38.1766 114.68C35.3549 114.68 32.4923 113.964 29.8986 112.611C27.3322 111.269 25.084 109.339 23.4008 107.025C20.0378 102.405 19.1954 96.758 21.0283 91.1267L23.1166 84.7123C24.9189 79.1778 22.96 73.1575 18.2406 69.7363L12.7725 65.7714C9.44014 63.3541 7.10685 60.1266 6.02784 56.4386C5.02032 52.9936 5.09861 49.2972 6.2542 45.7485C7.40978 42.1982 9.52354 39.1608 12.3674 36.9661C15.4138 34.615 19.2022 33.3716 23.3225 33.3716H30.0824C35.9148 33.3716 41.0443 29.6513 42.8466 24.1152L44.9348 17.7008C46.2079 13.7886 48.5633 10.578 51.7441 8.41381C54.7139 6.39232 58.2624 5.32552 62.0014 5.32552H61.9997C65.7388 5.32382 69.2856 6.39232 72.2571 8.41211C75.4379 10.5763 77.7933 13.7869 79.0663 17.6991L81.1546 24.1135C82.9569 29.6479 88.0864 33.3699 93.9188 33.3699H100.679C104.799 33.3699 108.586 34.6133 111.634 36.9644C114.478 39.1608 116.591 42.1965 117.747 45.7468C118.903 49.2971 118.981 52.9936 117.973 56.4369C116.894 60.1249 114.563 63.3541 111.229 65.7697L105.761 69.7346C101.043 73.1575 99.0823 79.1744 100.885 84.7106H100.881Z" fill="#004001"/>
<path d="M117.97 56.4369C118.978 52.9936 118.899 49.2954 117.744 45.7468C116.588 42.1981 114.474 39.1608 111.631 36.9643C108.584 34.6133 104.796 33.3698 100.676 33.3698H93.9156C88.0832 33.3698 82.9537 29.6496 81.1514 24.1134L79.0632 17.699C77.7902 13.7869 75.4348 10.5763 72.2539 8.41208C69.2824 6.39059 65.7357 5.32379 61.9966 5.32379H61.9983C58.2592 5.32549 54.7108 6.39399 51.741 8.41378C48.5601 10.578 46.2047 13.7886 44.9317 17.7007L42.8435 24.1151C41.0412 29.6496 35.9117 33.3715 30.0793 33.3715H23.3194C19.1991 33.3715 15.4124 34.615 12.3643 36.966C9.52039 39.1608 7.40664 42.1981 6.25106 45.7485C5.09547 49.2988 5.01718 52.9936 6.0247 56.4386C7.10371 60.1265 9.437 63.3541 12.7693 65.7714L18.2375 69.7362C22.9569 73.1575 24.9157 79.1761 23.1134 84.7122L21.0252 91.1267C19.1923 96.7579 20.0347 102.405 23.3976 107.025C25.0808 109.339 27.329 111.268 29.8955 112.61C32.4892 113.964 35.35 114.68 38.1735 114.68C41.8921 114.68 45.415 113.492 48.6401 111.153L54.1083 107.188C56.4161 105.515 59.1442 104.63 61.9966 104.63C64.849 104.63 67.5771 105.515 69.8849 107.188L75.3531 111.153C78.5799 113.494 82.1028 114.68 85.8197 114.68C88.6398 114.68 91.5023 113.963 94.096 112.609C96.6642 111.267 98.9107 109.337 100.594 107.023C103.957 102.401 104.799 96.7562 102.966 91.125L100.878 84.7106C99.0758 79.1761 101.036 73.1575 105.754 69.7346L111.222 65.7697C114.556 63.3541 116.888 60.1248 117.967 56.4369H117.97Z" fill="#A4FF55"/>
<path d="M46.6676 61.2902C50.7676 61.2902 54.0913 57.9727 54.0913 53.8803C54.0913 49.788 50.7676 46.4705 46.6676 46.4705C42.5676 46.4705 39.244 49.788 39.244 53.8803C39.244 57.9727 42.5676 61.2902 46.6676 61.2902Z" fill="#004001"/>
<path d="M77.3341 61.2902C81.434 61.2902 84.7577 57.9727 84.7577 53.8803C84.7577 49.788 81.434 46.4705 77.3341 46.4705C73.2341 46.4705 69.9104 49.788 69.9104 53.8803C69.9104 57.9727 73.2341 61.2902 77.3341 61.2902Z" fill="#004001"/>
<path d="M62.1821 81.1823C57.2126 81.1823 52.9493 78.906 49.8553 74.5997C47.6054 71.4673 46.7681 68.3314 46.7323 68.2006C46.4396 67.0777 47.1118 65.9277 48.2385 65.6355C49.3617 65.3433 50.5122 66.0126 50.8067 67.1321C50.9156 67.5398 53.5433 76.9762 62.1787 76.9762C70.8141 76.9762 73.0759 67.5925 73.1695 67.1933C73.4367 66.0653 74.5668 65.362 75.6969 65.6236C76.8269 65.8869 77.5332 67.0098 77.2745 68.1377C77.2439 68.2702 76.5053 71.4163 74.3473 74.5623C71.3757 78.8924 67.167 81.1823 62.1787 81.1823H62.1821Z" fill="#004001"/>
</svg>
