<svg width="35" height="33" viewBox="0 0 35 33" fill="none" xmlns="http://www.w3.org/2000/svg">
<path d="M31.5 11C31.5 11 31.472 11 31.458 11C31.108 7.90623 28.441 5.4931 25.2 5.4931H22.379C22.386 5.37623 22.4 5.26623 22.4 5.14935C22.4 2.3031 20.048 -0.00689697 17.15 -0.00689697C14.252 -0.00689697 11.9 2.3031 11.9 5.14935C11.9 5.26623 11.907 5.37623 11.921 5.4931H9.8C6.559 5.4931 3.885 7.89935 3.542 11C3.528 11 3.514 11 3.5 11C1.568 11 0 12.54 0 14.4375V23.375C0 25.2725 1.568 26.8125 3.5 26.8125C3.5 30.2294 6.321 33 9.8 33H25.2C28.679 33 31.5 30.2294 31.5 26.8125C33.432 26.8125 35 25.2725 35 23.375V14.4375C35 12.54 33.432 11 31.5 11ZM8.4 17.1875C8.015 17.1875 7.693 16.8781 7.756 16.5C8.085 14.5475 9.814 13.0625 11.9 13.0625C13.986 13.0625 15.708 14.5475 16.044 16.5C16.107 16.8712 15.785 17.1875 15.4 17.1875H8.4ZM17.5 26.125C15.421 26.125 13.692 24.64 13.356 22.6875C13.293 22.3162 13.615 22 14 22H21C21.385 22 21.707 22.3094 21.644 22.6875C21.315 24.64 19.586 26.125 17.5 26.125ZM26.6 17.1875H19.6C19.215 17.1875 18.893 16.8781 18.956 16.5C19.285 14.5475 21.014 13.0625 23.1 13.0625C25.186 13.0625 26.908 14.5475 27.244 16.5C27.307 16.8712 26.985 17.1875 26.6 17.1875Z" fill="#313131"/>
</svg>
