<svg width="30" height="30" viewBox="0 0 30 30" fill="none" xmlns="http://www.w3.org/2000/svg">
<path fill-rule="evenodd" clip-rule="evenodd" d="M11.3223 1.06066C12.5036 0.0694071 14.0421 -0.216157 15.4258 0.158316C16.2526 0.266978 17.0599 0.604021 17.7461 1.1798L27.2988 9.1964C27.8785 9.68288 28.3045 10.2842 28.5742 10.9386C28.8891 11.556 29.0683 12.2546 29.0684 12.9952V25.4659C29.0684 27.9705 27.0377 30.001 24.5332 30.0011C22.0287 30.0011 19.998 27.9705 19.998 25.4659V14.9103L14.4629 10.2657L9.06934 14.7911V25.3468C9.06934 27.8513 7.03951 29.8818 4.53516 29.8819C2.03064 29.8819 -1.35519e-09 27.8514 0 25.3468V12.8761C2.09242e-05 12.1368 0.177443 11.439 0.491211 10.8224C0.760914 10.1667 1.18876 9.5646 1.76953 9.07726L11.3223 1.06066Z" fill="#004001"/>
</svg>
