<svg width="30" height="24" viewBox="0 0 30 24" fill="none" xmlns="http://www.w3.org/2000/svg">
<path d="M23.294 1.79736C24.2863 0.0787086 26.4835 -0.510227 28.2022 0.481934C29.9209 1.47424 30.5099 3.67239 29.5176 5.39111L20.085 21.729C19.7735 22.2685 19.3426 22.6957 18.8457 22.9985C17.3412 24.0059 15.2882 23.7396 14.0977 22.3208L10.2217 17.7007L6.34573 22.3208C5.07001 23.8409 2.80345 24.0388 1.28323 22.7632C-0.236732 21.4874 -0.434732 19.2209 0.840851 17.7007L7.19241 10.1313C7.96659 9.20872 9.10592 8.77281 10.2217 8.85791C11.3377 8.7726 12.4767 9.20855 13.251 10.1313L16.3496 13.8237L23.294 1.79736Z" fill="#313131"/>
</svg>
